<svg width="0" height="0" class="hidden">
  <symbol xmlns="http://www.w3.org/2000/svg" viewBox="0 0 60 60" id="brankic1979 location">
    <title>location</title>
    <path d="M20.931 21.664c0-4.978 4.061-9.013 9.069-9.013s9.069 4.035 9.069 9.013-4.061 9.011-9.069 9.011-9.069-4.035-9.069-9.011zm-6.349 1.125c0 3.771 4.601 11.719 4.601 11.719L30 52.534 40.196 34.51s5.222-8.006 5.222-11.719C45.418 14.329 38.514 7.47 30 7.47s-15.418 6.857-15.418 15.319z"></path>
  </symbol>
  <symbol xmlns="http://www.w3.org/2000/svg" viewBox="0 0 46 46" id="creambee-qrcode">
    <path fill="#FFF" d="M0 0h46v46H0z"></path>
    <path d="M2 3s0-1 1-1h12s1 0 1 1v12s0 1-1 1H3s-1 0-1-1V3m3 1S4 4 4 5v8s0 1 1 1h8s1 0 1-1V5s0-1-1-1H5z" stroke-width="0" fill="#007CC2"></path>
    <path d="M2 21s0-1 1-1c0 0 1 0 1 1 0 0 0 1-1 1 0 0-1 0-1-1z" stroke-width="0"></path>
    <path d="M6 19s0-1 1-1h2s1 0 1 1v2s0 1-1 1c0 0-1 0-1 1 0 0 0 1-1 1 0 0-1 0-1 1 0 0 0 1 1 1 0 0 1 0 1 1 0 0 0 1-1 1H3s-1 0-1-1c0 0 0-1 1-1 0 0 1 0 1-1v-2s0-1 1-1c0 0 1 0 1-1v-2zM2 31s0-1 1-1h12s1 0 1 1v12s0 1-1 1H3s-1 0-1-1V31m3 1s-1 0-1 1v8s0 1 1 1h8s1 0 1-1v-8s0-1-1-1H5z"
      fill="#007CC2" stroke-width="0"></path>
    <path d="M6 7s0-1 1-1h4s1 0 1 1v4s0 1-1 1H7s-1 0-1-1V7zm0 28s0-1 1-1h4s1 0 1 1v4s0 1-1 1H7s-1 0-1-1v-4z" stroke-width="0"></path>
    <path d="M10 25s0-1 1-1c0 0 1 0 1 1v2s0 1-1 1c0 0-1 0-1-1v-2z" fill="#007CC2" stroke-width="0"></path>
    <path d="M12 21s0-1 1-1c0 0 1 0 1 1 0 0 0 1-1 1 0 0-1 0-1-1z" stroke-width="0"></path>
    <path d="M18 15s0-1 1-1c0 0 1 0 1 1 0 0 0 1 1 1 0 0 1 0 1-1 0 0 0-1 1-1 0 0 1 0 1 1v2s0 1-1 1h-2s-1 0-1 1c0 0 0 1-1 1 0 0-1 0-1 1 0 0 0 1 1 1 0 0 1 0 1-1 0 0 0-1 1-1 0 0 1 0 1 1 0 0 0 1 1 1 0 0 1 0 1 1 0 0 0 1 1 1h2s1 0 1-1c0 0 0-1 1-1 0 0 1 0 1 1v4s0 1 1 1c0 0 1 0 1-1 0 0 0-1 1-1 0 0 1 0 1 1 0 0 0 1 1 1h2s1 0 1 1v2s0 1 1 1h4s1 0 1 1v2s0 1-1 1c0 0-1 0-1 1 0 0 0 1-1 1 0 0-1 0-1-1 0 0 0-1-1-1 0 0-1 0-1-1 0 0 0-1-1-1 0 0-1 0-1-1 0 0 0-1-1-1h-2s-1 0-1-1c0 0 0-1-1-1 0 0-1 0-1 1 0 0 0 1-1 1 0 0-1 0-1-1 0 0 0-1-1-1 0 0-1 0-1 1v2s0 1 1 1c0 0 1 0 1 1 0 0 0 1 1 1 0 0 1 0 1 1v2s0 1-1 1c0 0-1 0-1-1 0 0 0-1-1-1 0 0-1 0-1-1 0 0 0-1-1-1 0 0-1 0-1-1 0 0 0-1-1-1 0 0-1 0-1-1 0 0 0-1 1-1 0 0 1 0 1-1v-2s0-1 1-1c0 0 1 0 1-1 0 0 0-1-1-1h-2s-1 0-1-1c0 0 0-1-1-1 0 0-1 0-1 1v4s0 1 1 1c0 0 1 0 1 1 0 0 0 1-1 1h-2s-1 0-1-1v-6s0-1-1-1h-2s-1 0-1-1c0 0 0-1 1-1 0 0 1 0 1-1 0 0 0-1-1-1 0 0-1 0-1-1 0 0 0-1 1-1h2s1 0 1-1v-2z"
      fill="#007CC2" stroke-width="0"></path>
    <path d="M14 27s0-1 1-1c0 0 1 0 1 1 0 0 0 1-1 1 0 0-1 0-1-1z" stroke-width="0"></path>
    <path d="M20 3s0-1 1-1h4s1 0 1 1c0 0 0 1 1 1 0 0 1 0 1 1 0 0 0 1-1 1 0 0-1 0-1 1 0 0 0 1-1 1 0 0-1 0-1 1v2s0 1-1 1c0 0-1 0-1 1 0 0 0 1-1 1 0 0-1 0-1-1 0 0 0-1-1-1 0 0-1 0-1-1 0 0 0-1 1-1h2s1 0 1-1c0 0 0-1-1-1 0 0-1 0-1-1 0 0 0-1 1-1 0 0 1 0 1-1 0 0 0-1-1-1 0 0-1 0-1-1zm-2 34s0-1 1-1h4s1 0 1 1c0 0 0 1-1 1h-2s-1 0-1 1c0 0 0 1-1 1 0 0-1 0-1-1v-2zm2 4s0-1 1-1h2s1 0 1 1v2s0 1-1 1h-2s-1 0-1-1v-2zm4-28s0-1 1-1h2s1 0 1 1v4s0 1 1 1h2s1 0 1 1c0 0 0 1 1 1 0 0 1 0 1 1 0 0 0 1-1 1h-2s-1 0-1-1c0 0 0-1-1-1h-2s-1 0-1-1v-4s0-1-1-1c0 0-1 0-1-1z"
      fill="#007CC2" stroke-width="0"></path>
    <path d="M24 39s0-1 1-1c0 0 1 0 1 1 0 0 0 1-1 1 0 0-1 0-1-1zm2-30s0-1 1-1c0 0 1 0 1 1 0 0 0 1-1 1 0 0-1 0-1-1z" stroke-width="0"></path>
    <path d="M30 41s0-1 1-1c0 0 1 0 1 1 0 0 0 1 1 1h6s1 0 1 1c0 0 0 1-1 1H27s-1 0-1-1c0 0 0-1 1-1h2s1 0 1-1zm0-38s0-1 1-1h12s1 0 1 1v12s0 1-1 1H31s-1 0-1-1V3m3 1s-1 0-1 1v8s0 1 1 1h8s1 0 1-1V5s0-1-1-1h-8zm-3 31s0-1 1-1h2s1 0 1 1c0 0 0 1-1 1h-2s-1 0-1-1z"
      fill="#007CC2" stroke-width="0"></path>
    <path d="M34 7s0-1 1-1h4s1 0 1 1v4s0 1-1 1h-4s-1 0-1-1V7zm0 12s0-1 1-1c0 0 1 0 1 1 0 0 0 1-1 1 0 0-1 0-1-1zm2 2s0-1 1-1c0 0 1 0 1 1 0 0 0 1-1 1 0 0-1 0-1-1zm0 4s0-1 1-1c0 0 1 0 1 1 0 0 0 1-1 1 0 0-1 0-1-1zm0 14s0-1 1-1c0 0 1 0 1 1 0 0 0 1-1 1 0 0-1 0-1-1z"
      stroke-width="0"></path>
    <path d="M40 23s0-1 1-1h2s1 0 1 1c0 0 0 1-1 1h-2s-1 0-1-1z" fill="#007CC2" stroke-width="0"></path>
    <path d="M40 27s0-1 1-1c0 0 1 0 1 1 0 0 0 1-1 1 0 0-1 0-1-1zm2 14s0-1 1-1c0 0 1 0 1 1 0 0 0 1-1 1 0 0-1 0-1-1z" stroke-width="0"></path>
  </symbol>
  <symbol xmlns="http://www.w3.org/2000/svg" viewBox="0 0 640 512" id="FontAwesome user clock">
    <path d="M496 224c-79.6 0-144 64.4-144 144s64.4 144 144 144 144-64.4 144-144-64.4-144-144-144zm64 150.3c0 5.3-4.4 9.7-9.7 9.7h-60.6c-5.3 0-9.7-4.4-9.7-9.7v-76.6c0-5.3 4.4-9.7 9.7-9.7h12.6c5.3 0 9.7 4.4 9.7 9.7V352h38.3c5.3 0 9.7 4.4 9.7 9.7v12.6zM320 368c0-27.8 6.7-54.1 18.2-77.5-8-1.5-16.2-2.5-24.6-2.5h-16.7c-22.2 10.2-46.9 16-72.9 16s-50.6-5.8-72.9-16h-16.7C60.2 288 0 348.2 0 422.4V464c0 26.5 21.5 48 48 48h347.1c-45.3-31.9-75.1-84.5-75.1-144zm-96-112c70.7 0 128-57.3 128-128S294.7 0 224 0 96 57.3 96 128s57.3 128 128 128z"></path>
  </symbol>
  <symbol xmlns="http://www.w3.org/2000/svg" viewBox="0 0 640 512" id="FontAwesome user cog">
    <path d="M610.5 373.3c2.6-14.1 2.6-28.5 0-42.6l25.8-14.9c3-1.7 4.3-5.2 3.3-8.5-6.7-21.6-18.2-41.2-33.2-57.4-2.3-2.5-6-3.1-9-1.4l-25.8 14.9c-10.9-9.3-23.4-16.5-36.9-21.3v-29.8c0-3.4-2.4-6.4-5.7-7.1-22.3-5-45-4.8-66.2 0-3.3.7-5.7 3.7-5.7 7.1v29.8c-13.5 4.8-26 12-36.9 21.3l-25.8-14.9c-2.9-1.7-6.7-1.1-9 1.4-15 16.2-26.5 35.8-33.2 57.4-1 3.3.4 6.8 3.3 8.5l25.8 14.9c-2.6 14.1-2.6 28.5 0 42.6l-25.8 14.9c-3 1.7-4.3 5.2-3.3 8.5 6.7 21.6 18.2 41.1 33.2 57.4 2.3 2.5 6 3.1 9 1.4l25.8-14.9c10.9 9.3 23.4 16.5 36.9 21.3v29.8c0 3.4 2.4 6.4 5.7 7.1 22.3 5 45 4.8 66.2 0 3.3-.7 5.7-3.7 5.7-7.1v-29.8c13.5-4.8 26-12 36.9-21.3l25.8 14.9c2.9 1.7 6.7 1.1 9-1.4 15-16.2 26.5-35.8 33.2-57.4 1-3.3-.4-6.8-3.3-8.5l-25.8-14.9zM496 400.5c-26.8 0-48.5-21.8-48.5-48.5s21.8-48.5 48.5-48.5 48.5 21.8 48.5 48.5-21.7 48.5-48.5 48.5zM224 256c70.7 0 128-57.3 128-128S294.7 0 224 0 96 57.3 96 128s57.3 128 128 128zm201.2 226.5c-2.3-1.2-4.6-2.6-6.8-3.9l-7.9 4.6c-6 3.4-12.8 5.3-19.6 5.3-10.9 0-21.4-4.6-28.9-12.6-18.3-19.8-32.3-43.9-40.2-69.6-5.5-17.7 1.9-36.4 17.9-45.7l7.9-4.6c-.1-2.6-.1-5.2 0-7.8l-7.9-4.6c-16-9.2-23.4-28-17.9-45.7.9-2.9 2.2-5.8 3.2-8.7-3.8-.3-7.5-1.2-11.4-1.2h-16.7c-22.2 10.2-46.9 16-72.9 16s-50.6-5.8-72.9-16h-16.7C60.2 288 0 348.2 0 422.4V464c0 26.5 21.5 48 48 48h352c10.1 0 19.5-3.2 27.2-8.5-1.2-3.8-2-7.7-2-11.8v-9.2z"></path>
  </symbol>
  <symbol xmlns="http://www.w3.org/2000/svg" viewBox="0 0 640 512" id="FontAwesome user friends">
    <path d="M192 256c61.9 0 112-50.1 112-112S253.9 32 192 32 80 82.1 80 144s50.1 112 112 112zm76.8 32h-8.3c-20.8 10-43.9 16-68.5 16s-47.6-6-68.5-16h-8.3C51.6 288 0 339.6 0 403.2V432c0 26.5 21.5 48 48 48h288c26.5 0 48-21.5 48-48v-28.8c0-63.6-51.6-115.2-115.2-115.2zM480 256c53 0 96-43 96-96s-43-96-96-96-96 43-96 96 43 96 96 96zm48 32h-3.8c-13.9 4.8-28.6 8-44.2 8s-30.3-3.2-44.2-8H432c-20.4 0-39.2 5.9-55.7 15.4 24.4 26.3 39.7 61.2 39.7 99.8v38.4c0 2.2-.5 4.3-.6 6.4H592c26.5 0 48-21.5 48-48 0-61.9-50.1-112-112-112z"></path>
  </symbol>
  <symbol xmlns="http://www.w3.org/2000/svg" viewBox="0 0 640 512" id="FontAwesome user lock">
    <path d="M320 320c0-11.1 3.1-21.4 8.1-30.5-4.8-.5-9.5-1.5-14.5-1.5h-16.7c-22.2 10.2-46.9 16-72.9 16s-50.6-5.8-72.9-16h-16.7C60.2 288 0 348.2 0 422.4V464c0 26.5 21.5 48 48 48h280.9c-5.5-9.5-8.9-20.3-8.9-32V320zm-96-64c70.7 0 128-57.3 128-128S294.7 0 224 0 96 57.3 96 128s57.3 128 128 128zm384 32h-32v-48c0-44.2-35.8-80-80-80s-80 35.8-80 80v48h-32c-17.7 0-32 14.3-32 32v160c0 17.7 14.3 32 32 32h224c17.7 0 32-14.3 32-32V320c0-17.7-14.3-32-32-32zm-80 0h-64v-48c0-17.6 14.4-32 32-32s32 14.4 32 32v48z"></path>
  </symbol>
  <symbol xmlns="http://www.w3.org/2000/svg" viewBox="0 0 640 512" id="FontAwesome user shield">
    <path d="M622.3 271.1l-115.2-45c-4.1-1.6-12.6-3.7-22.2 0l-115.2 45c-10.7 4.2-17.7 14-17.7 24.9 0 111.6 68.7 188.8 132.9 213.9 9.6 3.7 18 1.6 22.2 0C558.4 489.9 640 420.5 640 296c0-10.9-7-20.7-17.7-24.9zM496 462.4V273.3l95.5 37.3c-5.6 87.1-60.9 135.4-95.5 151.8zM224 256c70.7 0 128-57.3 128-128S294.7 0 224 0 96 57.3 96 128s57.3 128 128 128zm96 40c0-2.5.8-4.8 1.1-7.2-2.5-.1-4.9-.8-7.5-.8h-16.7c-22.2 10.2-46.9 16-72.9 16s-50.6-5.8-72.9-16h-16.7C60.2 288 0 348.2 0 422.4V464c0 26.5 21.5 48 48 48h352c6.8 0 13.3-1.5 19.2-4-54-42.9-99.2-116.7-99.2-212z"></path>
  </symbol>
  <symbol xmlns="http://www.w3.org/2000/svg" viewBox="0 0 640 512" id="FontAwesome user tag">
    <path d="M630.6 364.9l-90.3-90.2c-12-12-28.3-18.7-45.3-18.7h-79.3c-17.7 0-32 14.3-32 32v79.2c0 17 6.7 33.2 18.7 45.2l90.3 90.2c12.5 12.5 32.8 12.5 45.3 0l92.5-92.5c12.6-12.5 12.6-32.7.1-45.2zm-182.8-21c-13.3 0-24-10.7-24-24s10.7-24 24-24 24 10.7 24 24c0 13.2-10.7 24-24 24zm-223.8-88c70.7 0 128-57.3 128-128C352 57.3 294.7 0 224 0S96 57.3 96 128c0 70.6 57.3 127.9 128 127.9zm127.8 111.2V294c-12.2-3.6-24.9-6.2-38.2-6.2h-16.7c-22.2 10.2-46.9 16-72.9 16s-50.6-5.8-72.9-16h-16.7C60.2 287.9 0 348.1 0 422.3v41.6c0 26.5 21.5 48 48 48h352c15.5 0 29.1-7.5 37.9-18.9l-58-58c-18.1-18.1-28.1-42.2-28.1-67.9z"></path>
  </symbol>
  <symbol xmlns="http://www.w3.org/2000/svg" viewBox="0 0 60 60" id="hawcons mail envelope open6">
    <title>mail-envelope-open6</title>
    <path d="M41.597 37.738L37.5 41.25l11.106 9.519-1.514 1.514-11.242-9.636-9.794.043-.04-.034-11.232 9.627-1.514-1.514 11.106-9.519-4.097-3.512-7.153-6.051V21.299l-5.625 4.95V52.51a3.74 3.74 0 0 0 3.757 3.739H50.62c2.075 0 3.757-1.677 3.757-3.739V26.249l-5.625-4.95v10.388l-7.153 6.051zM24.545 11.25l6.392-5.625 6.392 5.625H24.545zm-7.67 1.875A1.871 1.871 0 0 0 15 15.004v15.371l11.723 9.967h8.287l11.865-9.967V15.004A1.886 1.886 0 0 0 45 13.125H16.875z"></path>
  </symbol>
  <symbol xmlns="http://www.w3.org/2000/svg" viewBox="-6 -2 24 24" preserveAspectRatio="xMinYMin" id="JamIcons phone">
    <path d="M3 0h6a3 3 0 0 1 3 3v14a3 3 0 0 1-3 3H3a3 3 0 0 1-3-3V3a3 3 0 0 1 3-3zm0 2a1 1 0 0 0-1 1v14a1 1 0 0 0 1 1h6a1 1 0 0 0 1-1V3a1 1 0 0 0-1-1H3zm3 15a1 1 0 1 1 0-2 1 1 0 0 1 0 2z"></path>
  </symbol>
</svg>